/* XPM */
static char * block1_xpm[] = {
"80 80 108 2",
"  	c #4CEDE7",
". 	c #3DE0E5",
"+ 	c #4BEDE7",
"@ 	c #3DE1E5",
"# 	c #4CEDE8",
"$ 	c #15C1C5",
"% 	c #15C2C6",
"& 	c #4BEDE6",
"* 	c #4AEDE6",
"= 	c #4AEDE5",
"- 	c #3EE0E5",
"; 	c #3DE0E4",
"> 	c #3EE1E5",
", 	c #D5FEF6",
"' 	c #D6FEF7",
") 	c #FDFFFF",
"! 	c #FEFFFF",
"~ 	c #9EFDEB",
"{ 	c #9EFDEC",
"] 	c #A0FDEC",
"^ 	c #D4FEF7",
"/ 	c #D4FDF7",
"( 	c #9FFDEC",
"_ 	c #9DFDEC",
": 	c #65F6E3",
"< 	c #63F6E3",
"[ 	c #64F6E3",
"} 	c #D5FEF7",
"| 	c #14C2C5",
"1 	c #FFFFFF",
"2 	c #A0FDEB",
"3 	c #9FFDEB",
"4 	c #D5FDF6",
"5 	c #12C3C6",
"6 	c #FCFEFF",
"7 	c #A1FDEB",
"8 	c #9CFDEC",
"9 	c #65F6E2",
"0 	c #65F6E4",
"a 	c #70FBF0",
"b 	c #71FAEE",
"c 	c #64F6E2",
"d 	c #4CEDE6",
"e 	c #3FE0E4",
"f 	c #3FE0E5",
"g 	c #3FE1E5",
"h 	c #4DEDE7",
"i 	c #6FFBF0",
"j 	c #70FAEF",
"k 	c #72FAEF",
"l 	c #D4FEF6",
"m 	c #D3FEF7",
"n 	c #D3FDF7",
"o 	c #D2FEF7",
"p 	c #72FBEE",
"q 	c #70FBEF",
"r 	c #4BEDE8",
"s 	c #6FFBEF",
"t 	c #15C2C5",
"u 	c #71FBF0",
"v 	c #9FFCEC",
"w 	c #15C3C6",
"x 	c #71FBEF",
"y 	c #9DFDEB",
"z 	c #66F6E3",
"A 	c #9DFCEC",
"B 	c #9CFCED",
"C 	c #17C2C5",
"D 	c #72FBF0",
"E 	c #4CEEE7",
"F 	c #3EE0E4",
"G 	c #3EE1E4",
"H 	c #3DE1E4",
"I 	c #0CB8BD",
"J 	c #0BB7BC",
"K 	c #0DB8BD",
"L 	c #0DB8BC",
"M 	c #0CB8BC",
"N 	c #0CB7BC",
"O 	c #4AEDE7",
"P 	c #66F6E2",
"Q 	c #72FBEF",
"R 	c #70FBEE",
"S 	c #0DB8BE",
"T 	c #0FBABF",
"U 	c #0EB9BE",
"V 	c #9EFDEA",
"W 	c #4DEDE6",
"X 	c #6EFAF0",
"Y 	c #67F6E3",
"Z 	c #6FFAF0",
"` 	c #63F6E4",
" .	c #4CECE7",
"..	c #6EFBF0",
"+.	c #3EDFE5",
"@.	c #3DDFE5",
"#.	c #4BECE7",
"$.	c #0DB9BC",
"%.	c #0DBABC",
"&.	c #9EFCEC",
"*.	c #0EBABD",
"=.	c #16C2C6",
"-.	c #0EB9BD",
";.	c #15C1C6",
">.	c #0DB9BD",
",.	c #0EB9BC",
"'.	c #0CB9BC",
").	c #0EB9BF",
"                                        . . . . . . . . . .                             + . . . . . . . . . . . . . . . . . . . @                   # $ % % % % ",
"                                        . . . . . . . . . .                             + . . . . . . . . . . . . . . . . . . . .                   # $ % % % % ",
"                                        . . . . . . . . . .                             + . . . . . . . . . . . . . . . . . . . @                   # $ % % % % ",
"                                        . . . . . . . . . .                             + . . . . . . . . . . . . . . . . . . . .                   # $ % % % % ",
"          & * * * * * * * = = * * * = * - - - - - - - - - ; * * * * * * * * * * * * * * & > - - - - - - - - > > > > > > > > > > - & * * * * * * * * & % % % % % ",
"        & , , , , ' ) ! ! ! ! ! ! ! ! ! ~ { { { { { { { { ] ^ , , , , , , , , , , , , , / ( { { { { { { { { _ : < < < < < < < < [ } , , , , , , , , / | % % % % ",
"        * , , , , ' ! 1 1 1 1 1 1 1 1 1 2 3 3 3 3 3 3 3 3 2 } , , , , , , , , , , , , , 4 3 3 3 3 3 3 3 3 3 ~ : [ [ [ [ [ [ [ [ [ , , , , , , , , , / 5 % % % % ",
"        * , , , , ' ! 1 1 1 1 1 1 1 1 1 2 3 3 3 3 3 3 3 3 2 } , , , , , , , , , , , , , 4 3 3 3 3 3 3 3 3 3 ~ : [ [ [ [ [ [ [ [ [ , , , , , , , , , / 5 % % % % ",
"        * , , , , ' ! 1 1 1 1 1 1 1 1 1 2 3 3 3 3 3 3 3 3 2 } , , , , , , , , , , , , , 4 3 3 3 3 3 3 3 3 3 ~ : [ [ [ [ [ [ [ [ [ , , , , , , , , , / 5 % % % % ",
"        * ' ' ' ' ' 6 ! ! ! ! ! ! ! ! ! ~ ~ ~ ~ ~ 2 2 2 2 7 ^ , , , , , , , , , } } } } / ] ( ( ( { { _ _ _ 8 : [ [ [ [ 9 9 9 9 : } } } } } , , , , / 5 % % % % ",
"        * ) ! ! ! 6 : : : : : 0 : : : : a a a a b ^ , , , ^ 2 2 2 2 2 2 2 2 2 2 c c [ c < d d d d & e f f f f . > g g >         h i i i i a } , , , / 5 % % % % ",
"        = ! 1 1 1 ! : [ [ [ [ [ [ [ [ [ i i i i j , , , , } 2 3 3 3 3 3 3 3 3 3 [ [ [ [ <           . . . . . . . . . .           i i i i i } , , , / 5 % % % % ",
"        = ! 1 1 1 ! : [ [ [ [ [ [ [ [ [ i i i i j , , , , } 2 3 3 3 3 3 3 3 3 3 [ [ [ [ <           . . . . . . . . . .           i i i i i } , , , / 5 % % % % ",
"        = ! 1 1 1 ! : [ [ [ [ [ [ [ [ [ i i i i j , , , , } 2 3 3 3 3 3 3 3 3 3 [ [ [ [ <           . . . . . . . . . .           i i i i i } , , , / 5 % % % % ",
"        = ! 1 1 1 ! : [ [ [ [ : : : : [ i i i i k l l l l m 2 3 3 3 3 ~ ~ ~ ~ ~ [ [ [ [ <           - . . . . . . . . .         h i i i i a ^ l l l n 5 % % % % ",
"        = ! 1 1 1 ! : [ [ [ : i i i i a ^ ^ ^ ^ o 7 2 ] ] 2 3 3 3 3 ~ p q q q q [ [ [ [ <           + + r + + + + r + + s s s s i i i i i a 3 ] 2 2 ( t % % % % ",
"        = ! 1 1 1 ! : [ [ [ : a i i i a , , , , 4 3 3 3 3 3 3 3 3 3 ~ u i i i i [ [ [ [ <                               i i i i i i i i i q ~ 3 3 3 v w % % % % ",
"        = ! 1 1 1 ! : [ [ [ : a i i i a , , , , 4 3 3 3 3 3 3 3 3 3 ~ u i i i i [ [ [ [ <                               i i i i i i i i i q ~ 3 3 3 v w % % % % ",
"        = ! 1 1 1 ! : [ [ [ : a i i i a , , , , 4 3 3 3 3 3 3 3 3 3 ~ u i i i i [ [ [ [ <                               i i i i i i i i i q ~ 3 3 3 v w % % % % ",
"        * ! 1 1 1 ! : [ [ [ : a i i i a , , , , 4 3 3 3 3 3 3 3 3 3 ~ u i i i i [ [ [ [ [                               i i i i i i i i i a ~ 3 3 3 v w % % % % ",
". . . . . ( 2 2 2 ~ a i i i a ~ 3 3 3 3 3 3 3 3 3 3 3 3 3 ~ q i i i i : [ [ [ [                     : [ [ [ : a i i i i i i i i a : [ [ [ : ~ 3 3 3 v w % % % % ",
". . . . . { 3 3 3 ~ q i i i a ~ 3 3 3 3 3 3 3 3 3 3 3 3 3 ~ q i i i i : [ [ [ [                     : [ [ [ : a i i i i i i i i a : [ [ [ : ~ 3 3 3 v w % % % % ",
". . . . . { 3 3 3 ~ q i i i a ~ 3 3 3 3 3 3 3 3 3 3 3 3 3 ~ q i i i i : [ [ [ [                     : [ [ [ : a i i i i i i i i a : [ [ [ : ~ 3 3 3 v w % % % % ",
". . . . . { 3 3 3 ~ q i i i a ~ 3 3 3 3 3 3 3 3 3 3 3 3 3 ~ q i i i i : [ [ [ [                     9 [ [ [ : a i i i i i i i i a : [ [ [ : ~ 3 3 3 v w % % % % ",
". . . . . { 3 3 3 ~ x q q q x ~ 3 3 3 3 3 3 3 3 3 { ~ { ~ y x i i i i [ [ < [ [                     z : : : : q q q q q i i i i i [ < [ [ : 8 _ _ A B C % % % % ",
". . . . . { 3 3 3 3 ~ ~ ~ ~ ~ 3 3 3 3 3 3 3 3 3 ~ D a a a q : : : : [ h                 E < [ [ [ : y ~ ~ ~ ~ ~ ~ ~ ~ ~ [ : : : [ h         F F G H G I I I J I ",
". . . . . { 3 3 3 3 3 3 3 3 3 3 3 3 3 3 3 3 3 3 ~ a i i i i : [ [ [ <                     < [ [ [ : ~ 3 3 3 3 3 3 3 3 3 [ [ [ [ <           . . . . . K L M N N ",
". . . . . { 3 3 3 3 3 3 3 3 3 3 3 3 3 3 3 3 3 3 ~ a i i i i : [ [ [ <                     < [ [ [ : { 3 3 3 3 3 3 3 3 3 [ [ [ [ <           . . . . . K M N L N ",
". . . . . { 3 3 3 3 3 3 3 3 3 3 3 3 3 3 3 3 3 3 ~ a i i i i : [ [ [ <                     < [ [ [ : ~ 3 3 3 3 3 3 3 3 3 [ [ [ [ <           . . . . . I K I N N ",
". . . . ; ] 2 2 2 2 3 3 3 3 3 3 3 3 3 3 ~ ~ ~ ~ y a i i i i : [ [ [ < h                   : : : : z ~ 3 3 3 3 ~ ~ ~ ~ ~ 9 9 9 9 < + + + + + . . . . . K M J N N ",
"+ + + + O ^ , , , ^ 2 3 3 3 3 3 3 3 3 3 a a a a u i i i i i i i i i i [ 9 9 9 9 9 9 9 9 P y ~ ~ ~ ~ 3 3 3 3 ~ z : : : :         + . . . . . . . . . . K M L M N ",
"        * , , , , } 2 3 3 3 3 3 3 3 3 3 i i i i i i i i i i i i i i i : [ [ [ [ [ [ [ [ : ~ 3 3 3 3 3 3 3 3 ~ : [ [ [ [         + . . . . . . . . . . K M N N N ",
"        * , , , , } 2 3 3 3 3 3 3 3 3 3 i i i i i i i i i i i i i i i : [ [ [ [ [ [ [ [ : ~ 3 3 3 3 3 3 3 3 ~ : [ [ [ [         + . . . . . . . . . . K N I N K ",
"        * , , , , } 2 3 3 3 3 3 3 3 3 3 i i i i i i i i i i i i i i i : [ [ [ [ [ [ [ [ : ~ 3 3 3 3 3 3 3 3 ~ : [ [ [ [         + . . . . . . . . . . I N K N K ",
"        * , , , , } 2 3 3 3 3 ~ ~ ~ ~ ~ i i i i i i i i i i i i i i i [ [ [ [ [ : : : : z y ~ ~ ~ ~ ~ ~ ~ ~ _ : [ [ [ [         + . . . . . . . . . . K M N N L ",
"        * , , , , } 2 3 3 3 ~ Q q q q q i i i i i i i i i s : : : : [ [ [ [ [ [ i i i i i x q q q R z : : : :                   + . . . . . r + + + r M K N N L ",
"        * , , , , } 2 3 3 3 ~ u i i i i i i i i i i i i i i : [ [ [ [ [ [ [ [ [ i i i i i i i i i i : [ [ [ <                   + . . . . .           M I N N N ",
"        * , , , , } 2 3 3 3 ~ u i i i i i i i i i i i i i i : [ [ [ [ [ [ [ [ [ i i i i i i i i i i : [ [ [ <                   + . . . . .           I M L M K ",
"        * , , , , } 2 3 3 3 ~ u i i i i i i i i i i i i i i : [ [ [ [ [ [ [ [ [ i i i i i i i i i i : [ [ [ <                   + . . . . .           M N N N N ",
"        * , , , , } 2 3 3 3 ~ u i i i i i i i i i i i i i i : [ [ [ [ [ [ [ [ [ i i i i i i i i i i : [ [ [ <                   + . . . . . +         K S T U U ",
". . . . . { 3 3 3 V q i i i i i i i i i i i i i a : [ [ [ [ [ [ [ [ : a i i i i i i i i a : [ [ [ [ [ [ [ [ <                               : [ [ [ [ % % % % % ",
". . . . . { 3 3 3 ~ q i i i i i i i i i i i i i a : [ [ [ [ [ [ [ [ : a i i i i i i i i a : [ [ [ [ [ [ [ [ <                               : [ [ [ < % % % % % ",
". . . . . { 3 3 3 ~ q i i i i i i i i i i i i i a : [ [ [ [ [ [ [ [ : a i i i i i i i i a : [ [ [ [ [ [ [ [ <                               : [ [ [ < % % % % % ",
". . . . . { 3 3 3 ~ q i i i i i i i i i i i i i a : [ [ [ [ [ [ [ [ : a i i i i i i i i a : [ [ [ [ [ [ [ [ <                               : [ [ [ < % % % % % ",
". . . . . { 3 3 3 ~ q i i i i i i i i i i i i i i : [ [ [ [ [ : : : : i i i i i i i i i i : [ [ [ [ [ [ [ [ < W       +         +         h [ [ [ [ < % % % % % ",
". . . . . { 3 3 3 ~ q i i i i i i i i i : : : : : [ [ [ [ [ s i i i i i i i i i : : : : : [ [ [ [ [ [ [ [ [ [ [ [ [ [ [           i i i i i [ [ [ [ < % % % % % ",
". . . . . { 3 3 3 ~ q i i i i i i i i i [ [ [ [ [ [ [ [ [ : i i i i i i i i i i [ [ [ [ [ [ [ [ [ [ [ [ [ [ [ [ [ [ [ [           i i i i i : [ [ [ < % % % % % ",
". . . . . { 3 3 3 ~ q i i i i i i i i i [ [ [ [ [ [ [ [ [ : i i i i i i i i i i [ [ [ [ [ [ [ [ [ [ [ [ [ [ [ [ [ [ [ [           i i i i i : [ [ [ < % % % % % ",
". . . . . { 3 3 3 ~ q i i i i i i i i i [ [ [ [ [ [ [ [ [ : i i i i i i i i i i [ [ [ [ [ [ [ [ [ [ [ [ [ [ [ [ [ [ [ [           i i i i i : [ [ [ < % % % % % ",
". . . . . _ ~ ~ ~ y a i i i i s i i i i [ [ [ [ [ : : : : z a a a a u i i i i i [ [ [ [ [ [ [ [ [ [ [ [ [ [ [ [ [ [ [ [ d d d d h i i i i i : 9 9 9 [ % % % % % ",
". . . . . 0 : : : z i i i i i : [ [ [ [ [ [ [ [ : y ~ ~ ~ ~ ~ ~ ~ ~ y : [ [ [ [ [ [ [ [ [ [ [ [ [ [ [ [ [ [ [ [ [ [ [ [ { ( ( ( ~ q i i i i h         K I K I K ",
". . . . - [ [ [ [ : i i i i i : [ [ [ [ [ [ [ [ : ~ 3 3 3 3 3 3 3 3 ~ : [ [ [ [ [ [ [ [ [ [ [ [ [ [ [ [ [ [ [ [ [ [ [ [ 3 3 3 3 ~ a i i i X           M I M M N ",
". . . . - [ [ [ [ : i i i i i : [ [ [ [ [ [ [ [ : ~ 3 3 3 3 3 3 3 3 ~ : [ [ [ [ [ [ [ [ [ [ [ [ [ [ [ [ [ [ [ [ [ [ [ [ 3 3 3 3 ~ a i i i X           M N N N M ",
". . . . - < [ [ [ : i i i i i : [ [ [ [ [ [ [ [ : ~ 3 3 3 3 3 3 3 3 ~ : [ [ [ [ [ [ [ [ [ [ [ [ [ [ [ [ [ [ [ [ [ [ [ [ 3 3 3 3 ~ a i i i X           M N N N L ",
". . . . > < [ [ [ [ i i i i i [ [ [ [ [ : : : [ Y ~ 3 3 3 3 ~ ~ ~ ~ y : [ [ [ [ [ [ [ [ [ [ [ [ [ [ [ [ [ [ [ : : [ : [ 3 3 3 3 ~ j i i i X           M M K M N ",
". . . . @ +         : : : : [ [ [ [ [ [ ~ ~ ~ ~ ~ 3 3 3 3 ~ Y : : : :                     < [ [ [ [         W y ~ ~ ~ ~ 3 3 3 3 ~ : : : : :           M I N N N ",
". . . . @           9 [ [ [ [ [ [ [ [ [ 3 3 3 3 3 3 3 3 3 ~ : [ [ [ <                     [ [ [ [ :         W { 3 3 3 3 3 3 3 3 ~ : [ [ [ :           M M M N M ",
". . . . @           9 [ [ [ [ [ [ [ [ [ 3 3 3 3 3 3 3 3 3 ~ : [ [ [ [                     < [ [ [ :         W { 3 3 3 3 3 3 3 3 ~ : [ [ [ :           M N N M I ",
". . . . .           : [ [ [ [ [ [ [ [ [ 3 3 3 3 3 3 3 3 3 ~ : [ [ [ [                     < [ [ [ :         W { 3 3 3 3 3 3 3 3 ~ 9 [ [ [ 9           M N N M N ",
". . . . @           9 [ [ [ [ [ [ [ [ [ 3 3 3 3 3 3 3 3 3 ~ : [ [ [ [                     [ [ [ [ :         W { 3 3 3 3 3 3 3 3 ~ : [ [ [ : +         I T U T K ",
". . . . @           : [ [ [ [ ~ 3 3 3 3 3 3 3 3 ~ [ [ [ [ :         + . . . . . . . . . @ +         Z i i i i i i i i i [ [ [ [ <         + : [ [ [ [ % % % % % ",
". . . . .           9 [ [ [ 9 ~ 3 3 3 3 3 3 3 3 ~ 9 [ [ [ 9           . . . . . . . . . @           X i i i i i i i i i [ [ [ [ <           9 [ [ [ < % % % % % ",
". . . . @           : [ [ [ : ~ 3 3 3 3 3 3 3 3 ~ 9 [ [ [ :           @ . . . . . . . . @           X i i i i i i i i i [ [ [ [ <           : [ [ [ < % % % % % ",
". . . . @           : [ [ [ : ~ 3 3 3 3 3 3 3 3 ~ : [ [ [ :           @ . . . . . . . . @           X i i i i i i i i i [ [ [ [ <           : [ [ [ < % % % % % ",
". . . . . + #   r + 9 : : : z _ { ~ { ~ ~ ~ ~ ~ y [ [ [ < <   + + + + . . . . . . . . . . +         i i i i i i i i i i [ [ [ [ `           : : : : [ % % % % % ",
". . . . . . . . . . a i i i i a a a a u : : : [ [  .        . . . . . . . . . .         # ` [ [ [ [ : : : : : : : : : :                     X i i i i % % % % % ",
". . . . . . . . . . i i i i i i i i i i [ [ [ [ <           . . . . . . . . . .           < [ [ [ [ [ [ [ [ [ [ [ [ [ [                     X i i i i % % % % % ",
". . . . . . . . . . i i i i i i i i i i [ [ [ [ <           . . . . . . . . . .           [ [ [ [ [ [ [ [ [ [ [ [ [ [ [                     ..i i i i % % % % % ",
". . . . . . . . . . i i i i i i i i i i [ [ [ [ <           . . . . . . . . . .           [ [ [ [ [ [ [ [ [ [ [ [ [ [ [                     X i i i i % % % % % ",
". . . . . . . . . - s s s s i Z Z i i i 9 9 9 9 [   + + + O . . . . . . . . . .         h [ [ [ [ [ [ 9 9 9 9 9 9 9 9 :                     j a a a a % % % % % ",
". . . . . + + + + + - +.@.+.- +       #.        + . . . . . . . . . . O + + + + 9 9 9 9 [ [ [ [ [ [ h                   9 9 9 9 : X i X Z j y ~ ~ ~ _ $.K K K I ",
". . . . @           . . . . . +                 + . . . . . . . . . . +         [ [ [ [ [ [ [ [ [ :                     [ [ [ [ : i i i i q ~ 3 3 3 v $.M N N M ",
". . . . @           . . . . . +                 + . . . . . . . . . . +         [ [ [ [ [ [ [ [ [ :                     [ [ [ [ : i i i i q ~ 3 3 3 ( %.N J M K ",
". . . . @           . . . . . +                 + . . . . . . . . . . +         [ [ [ [ [ [ [ [ [ :                     [ [ [ [ : i i i i q ~ 3 3 3 v $.N L N N ",
". . . . . r # # # r . . . . . + # # # # # # # # + . . . . . . . . . . O         [ [ [ < [ [ [ [ [ [                     [ [ [ [ [ i i i i a y v v v &.*.M M N N ",
"% % % % % t $ $ $ =.U U -.U -.;.$ $ $ $ $ $ $ $ ;.U -.>.U -.U U >.U U N M M N K % % % % % % % % % % M J M J M J N N J K % % % % % % % % % % ,.'.$.'.,.K M N K L ",
"% % % % % % % % % % N N M K M % % % % % % % % % % I N N N J K N K N N M N M M S % % % % % % % % % % K M N K N N M K N U % % % % % % % % % % K N N N M N N N M N ",
"% % % % % % % % % % I K N N J % % % % % % % % % % J K K M N L N J K K N K N N U % % % % % % % % % % K K N N L N N N K U % % % % % % % % % % M N K M N N N N K N ",
"% % % % % % % % % % K N N N I % % % % % % % % % % I M N M M N N N N N M M N M T % % % % % % % % % % N N I N M K N M M ).% % % % % % % % % % K K N N K M M M K N ",
"% % % % % % % % % % I N M K I % % % % % % % % % % I N N N K N N K N M N I K M S % % % % % % % % % % I M M M N K M K N U % % % % % % % % % % I N J N N N N I N N "};
